<?xml version="1.0" encoding="UTF-8" standalone="no"?>
<svg
   width="1200"
   height="900"
   version="1.1"
   viewBox="0 0 1200 900"
   id="svg8"
   xmlns="http://www.w3.org/2000/svg"
   xmlns:svg="http://www.w3.org/2000/svg">
  <rect
     width="100%"
     height="100%"
     fill="#fbce2f"
     x="0"
     y="0"
     style="fill:#fbce2f;fill-opacity:1;stroke:none;stroke-width:0" />
  <g
     transform="matrix(3.7815147,0,0,3.7815147,0.62970716,-10.864007)"
     style="stroke-width:0">
    <g
       transform="matrix(1.1027378,0,0,1.1027378,-466.7523,-682.01596)"
       style="fill:#1a1a1a;fill-opacity:1;stroke-width:0">
      <path
         style="opacity:1;fill:#1a1a1a;fill-opacity:1;stroke:none;stroke-width:0"
         d="m 537,714.5 5,-5 10,10 10,-10 10,10 10,-10 5,5 -15,15 -10,-10 -10,10 z" />
      <path
         d="m 547,709.5 5,5 10,-10 10,10 10,-10 10,10 5,-5 -15,-15 -10,10 -10,-10 z"
         style="opacity:1;fill:#1a1a1a;fill-opacity:1;stroke:none;stroke-width:0" />
    </g>
    <text
       xml:space="preserve"
       x="158.51476"
       y="159.61583"><tspan
         style="font-style:normal;font-variant:normal;font-weight:bold;font-stretch:normal;font-family:sans-serif;fill:#1a1a1a;fill-opacity:1;stroke:none;stroke-width:0"
         x="158.51476"
         y="159.61583">CHILD THEME</tspan></text>
  </g>
</svg>
